<?xml version="1.0" encoding="UTF-8"?>
<svg xmlns="http://www.w3.org/2000/svg" xmlns:xlink="http://www.w3.org/1999/xlink" width="70" height="54" viewBox="0 0 70 54">
<path fill="none" stroke-width="0.4" stroke-linecap="butt" stroke-linejoin="round" stroke="rgb(0%, 0%, 0%)" stroke-opacity="1" stroke-miterlimit="10" d="M 176 592 L 192 608 " transform="matrix(1, 0, 0, -1, -157, 627)"/>
<path fill="none" stroke-width="0.4" stroke-linecap="butt" stroke-linejoin="round" stroke="rgb(0%, 0%, 0%)" stroke-opacity="1" stroke-miterlimit="10" d="M 192 576 L 176 592 " transform="matrix(1, 0, 0, -1, -157, 627)"/>
<path fill="none" stroke-width="0.4" stroke-linecap="butt" stroke-linejoin="round" stroke="rgb(0%, 0%, 0%)" stroke-opacity="1" stroke-miterlimit="10" d="M 192 576 L 208 592 " transform="matrix(1, 0, 0, -1, -157, 627)"/>
<path fill="none" stroke-width="0.4" stroke-linecap="butt" stroke-linejoin="round" stroke="rgb(0%, 0%, 0%)" stroke-opacity="1" stroke-miterlimit="10" d="M 176 592 L 160 608 " transform="matrix(1, 0, 0, -1, -157, 627)"/>
<path fill="none" stroke-width="0.4" stroke-linecap="butt" stroke-linejoin="round" stroke="rgb(0%, 0%, 0%)" stroke-opacity="1" stroke-miterlimit="10" d="M 176 592 L 176 608 " transform="matrix(1, 0, 0, -1, -157, 627)"/>
<path fill="none" stroke-width="0.4" stroke-linecap="butt" stroke-linejoin="round" stroke="rgb(0%, 0%, 0%)" stroke-opacity="1" stroke-miterlimit="10" d="M 208 592 L 208 608 " transform="matrix(1, 0, 0, -1, -157, 627)"/>
<path fill="none" stroke-width="0.4" stroke-linecap="butt" stroke-linejoin="round" stroke="rgb(0%, 0%, 0%)" stroke-opacity="1" stroke-miterlimit="10" d="M 208 592 L 224 608 " transform="matrix(1, 0, 0, -1, -157, 627)"/>
<path fill="none" stroke-width="0.4" stroke-linecap="butt" stroke-linejoin="round" stroke="rgb(0%, 0%, 0%)" stroke-opacity="1" stroke-miterlimit="10" d="M 160 608 L 160 624 " transform="matrix(1, 0, 0, -1, -157, 627)"/>
<path fill-rule="evenodd" fill="rgb(0%, 0%, 54.5%)" fill-opacity="1" d="M 36.800781 51 C 36.800781 48.601562 33.199219 48.601562 33.199219 51 C 33.199219 53.398438 36.800781 53.398438 36.800781 51 Z M 36.800781 51 "/>
<path fill-rule="evenodd" fill="rgb(18%, 54.5%, 34.1%)" fill-opacity="1" d="M 20.800781 35 C 20.800781 32.601562 17.199219 32.601562 17.199219 35 C 17.199219 37.398438 20.800781 37.398438 20.800781 35 Z M 20.800781 35 "/>
<path fill-rule="evenodd" fill="rgb(100%, 64.7%, 0%)" fill-opacity="1" d="M 52.800781 35 C 52.800781 32.601562 49.199219 32.601562 49.199219 35 C 49.199219 37.398438 52.800781 37.398438 52.800781 35 Z M 52.800781 35 "/>
<path fill-rule="evenodd" fill="rgb(100%, 64.7%, 0%)" fill-opacity="1" d="M 4.800781 19 C 4.800781 16.601562 1.199219 16.601562 1.199219 19 C 1.199219 21.398438 4.800781 21.398438 4.800781 19 Z M 4.800781 19 "/>
<path fill-rule="evenodd" fill="rgb(0%, 0%, 100%)" fill-opacity="1" d="M 20.800781 19 C 20.800781 16.601562 17.199219 16.601562 17.199219 19 C 17.199219 21.398438 20.800781 21.398438 20.800781 19 Z M 20.800781 19 "/>
<path fill-rule="evenodd" fill="rgb(100%, 0%, 0%)" fill-opacity="1" d="M 52.800781 19 C 52.800781 16.601562 49.199219 16.601562 49.199219 19 C 49.199219 21.398438 52.800781 21.398438 52.800781 19 Z M 52.800781 19 "/>
<path fill-rule="evenodd" fill="rgb(100%, 64.7%, 0%)" fill-opacity="1" d="M 68.800781 19 C 68.800781 16.601562 65.199219 16.601562 65.199219 19 C 65.199219 21.398438 68.800781 21.398438 68.800781 19 Z M 68.800781 19 "/>
<path fill-rule="evenodd" fill="rgb(18%, 54.5%, 34.1%)" fill-opacity="1" d="M 4.800781 3 C 4.800781 0.601562 1.199219 0.601562 1.199219 3 C 1.199219 5.398438 4.800781 5.398438 4.800781 3 Z M 4.800781 3 "/>
<path fill-rule="evenodd" fill="rgb(0%, 0%, 54.5%)" fill-opacity="1" d="M 36.800781 51 C 36.800781 48.601562 33.199219 48.601562 33.199219 51 C 33.199219 53.398438 36.800781 53.398438 36.800781 51 Z M 36.800781 51 "/>
<path fill-rule="evenodd" fill="rgb(18%, 54.5%, 34.1%)" fill-opacity="1" d="M 20.800781 35 C 20.800781 32.601562 17.199219 32.601562 17.199219 35 C 17.199219 37.398438 20.800781 37.398438 20.800781 35 Z M 20.800781 35 "/>
<path fill-rule="evenodd" fill="rgb(0%, 0%, 54.5%)" fill-opacity="1" d="M 36.800781 51 C 36.800781 48.601562 33.199219 48.601562 33.199219 51 C 33.199219 53.398438 36.800781 53.398438 36.800781 51 Z M 36.800781 51 "/>
<path fill-rule="evenodd" fill="rgb(100%, 0%, 0%)" fill-opacity="1" d="M 36.800781 19 C 36.800781 16.601562 33.199219 16.601562 33.199219 19 C 33.199219 21.398438 36.800781 21.398438 36.800781 19 Z M 36.800781 19 "/>
<path fill-rule="evenodd" fill="rgb(18%, 54.5%, 34.1%)" fill-opacity="1" d="M 20.800781 35 C 20.800781 32.601562 17.199219 32.601562 17.199219 35 C 17.199219 37.398438 20.800781 37.398438 20.800781 35 Z M 20.800781 35 "/>
<path fill-rule="evenodd" fill="rgb(0%, 0%, 54.5%)" fill-opacity="1" d="M 36.800781 51 C 36.800781 48.601562 33.199219 48.601562 33.199219 51 C 33.199219 53.398438 36.800781 53.398438 36.800781 51 Z M 36.800781 51 "/>
<path fill-rule="evenodd" fill="rgb(0%, 0%, 54.5%)" fill-opacity="1" d="M 36.800781 51 C 36.800781 48.601562 33.199219 48.601562 33.199219 51 C 33.199219 53.398438 36.800781 53.398438 36.800781 51 Z M 36.800781 51 "/>
<path fill-rule="evenodd" fill="rgb(0%, 0%, 100%)" fill-opacity="1" d="M 36.800781 51 C 36.800781 48.601562 33.199219 48.601562 33.199219 51 C 33.199219 53.398438 36.800781 53.398438 36.800781 51 Z M 36.800781 51 "/>
</svg>
