<?xml version="1.0" encoding="UTF-8" standalone="no"?>
<!-- Created with Inkscape (http://www.inkscape.org/) -->

<svg
   version="1.1"
   id="svg1"
   width="441.66406"
   height="442.41278"
   viewBox="0 0 441.66408 442.41277"
   xmlns="http://www.w3.org/2000/svg"
   xmlns:svg="http://www.w3.org/2000/svg">
  <defs
     id="defs1">
    <clipPath
       clipPathUnits="userSpaceOnUse"
       id="clipPath91">
      <path
         d="M 0,0 H 1444 V 339 H 0 Z"
         transform="scale(1.0017119,1)"
         id="path91" />
    </clipPath>
    <clipPath
       clipPathUnits="userSpaceOnUse"
       id="clipPath93">
      <path
         d="m 7.199,7.211 h 324.02 V 331.789 H 7.199 Z"
         transform="scale(1.3333333)"
         id="path93" />
    </clipPath>
    <clipPath
       clipPathUnits="userSpaceOnUse"
       id="clipPath94">
      <path
         d="M 0,0 H 1444 V 339 H 0 Z"
         transform="scale(1.0017119,1)"
         id="path94" />
    </clipPath>
    <clipPath
       clipPathUnits="userSpaceOnUse"
       id="clipPath96">
      <path
         d="m 7.199,7.211 h 324.02 V 331.789 H 7.199 Z"
         transform="scale(1.3333333)"
         id="path96" />
    </clipPath>
    <clipPath
       clipPathUnits="userSpaceOnUse"
       id="clipPath97">
      <path
         d="M 0,0 H 1444 V 339 H 0 Z"
         transform="scale(1.0017119,1)"
         id="path97" />
    </clipPath>
    <clipPath
       clipPathUnits="userSpaceOnUse"
       id="clipPath99">
      <path
         d="m 7.199,7.211 h 324.02 V 331.789 H 7.199 Z"
         transform="scale(1.3333333)"
         id="path99" />
    </clipPath>
    <clipPath
       clipPathUnits="userSpaceOnUse"
       id="clipPath103">
      <path
         d="M 0,0 H 1444 V 339 H 0 Z"
         transform="scale(1.0017119,1)"
         id="path103" />
    </clipPath>
    <clipPath
       clipPathUnits="userSpaceOnUse"
       id="clipPath105">
      <path
         d="m 7.199,7.211 h 324.02 V 331.789 H 7.199 Z"
         transform="scale(1.3333333)"
         id="path105" />
    </clipPath>
    <clipPath
       clipPathUnits="userSpaceOnUse"
       id="clipPath109">
      <path
         d="M 0,0 H 1444 V 339 H 0 Z"
         transform="scale(1.0017119,1)"
         id="path109" />
    </clipPath>
    <clipPath
       clipPathUnits="userSpaceOnUse"
       id="clipPath111">
      <path
         d="m 7.199,7.211 h 324.02 V 331.789 H 7.199 Z"
         transform="scale(1.3333333)"
         id="path111" />
    </clipPath>
    <clipPath
       clipPathUnits="userSpaceOnUse"
       id="clipPath112">
      <path
         d="M 0,0 H 1444 V 339 H 0 Z"
         transform="scale(1.0017119,1)"
         id="path112" />
    </clipPath>
    <clipPath
       clipPathUnits="userSpaceOnUse"
       id="clipPath114">
      <path
         d="m 7.199,7.211 h 324.02 V 331.789 H 7.199 Z"
         transform="scale(1.3333333)"
         id="path114" />
    </clipPath>
    <clipPath
       clipPathUnits="userSpaceOnUse"
       id="clipPath115">
      <path
         d="M 0,0 H 1444 V 339 H 0 Z"
         transform="scale(1.0017119,1)"
         id="path115" />
    </clipPath>
    <clipPath
       clipPathUnits="userSpaceOnUse"
       id="clipPath117">
      <path
         d="m 7.199,7.211 h 324.02 V 331.789 H 7.199 Z"
         transform="scale(1.3333333)"
         id="path117" />
    </clipPath>
    <clipPath
       clipPathUnits="userSpaceOnUse"
       id="clipPath121">
      <path
         d="M 0,0 H 1444 V 339 H 0 Z"
         transform="scale(1.0017119,1)"
         id="path121" />
    </clipPath>
    <clipPath
       clipPathUnits="userSpaceOnUse"
       id="clipPath123">
      <path
         d="m 7.199,7.211 h 324.02 V 331.789 H 7.199 Z"
         transform="scale(1.3333333)"
         id="path123" />
    </clipPath>
  </defs>
  <g
     id="g1"
     transform="translate(-13.730215,-8.8312024)">
    <g
       id="g92"
       clip-path="url(#clipPath93)"
       style="stroke-width:2;stroke-dasharray:none"
       transform="translate(8.947814,4.0375957)">
      <path
         d="M 13.453,169.5 169.501,325.547"
         style="fill:none;stroke:#000000;stroke-width:1.50128;stroke-linecap:square;stroke-linejoin:round;stroke-miterlimit:4;stroke-dasharray:none;stroke-opacity:1"
         transform="scale(1.3310547,1.3333333)"
         clip-path="url(#clipPath91)"
         id="path92" />
    </g>
    <g
       id="g95"
       clip-path="url(#clipPath96)"
       style="stroke-width:2;stroke-dasharray:none"
       transform="translate(8.947814,4.0375957)">
      <path
         d="m 13.453,169.5 117.036,39.012"
         style="fill:none;stroke:#000000;stroke-width:1.50128;stroke-linecap:square;stroke-linejoin:round;stroke-miterlimit:4;stroke-dasharray:none;stroke-opacity:1"
         transform="scale(1.3310547,1.3333333)"
         clip-path="url(#clipPath94)"
         id="path95" />
    </g>
    <g
       id="g98"
       clip-path="url(#clipPath99)"
       style="stroke-width:2;stroke-dasharray:none"
       transform="translate(8.947814,4.0375957)">
      <path
         d="M 13.453,169.5 169.501,13.453"
         style="fill:none;stroke:#000000;stroke-width:1.50128;stroke-linecap:square;stroke-linejoin:round;stroke-miterlimit:4;stroke-dasharray:none;stroke-opacity:1"
         transform="scale(1.3310547,1.3333333)"
         clip-path="url(#clipPath97)"
         id="path98" />
    </g>
    <g
       id="g104"
       clip-path="url(#clipPath105)"
       style="stroke-width:2;stroke-dasharray:none"
       transform="translate(8.947814,4.0375957)">
      <path
         d="M 169.501,325.547 130.489,208.512"
         style="fill:none;stroke:#000000;stroke-width:1.50128;stroke-linecap:square;stroke-linejoin:round;stroke-miterlimit:4;stroke-dasharray:none;stroke-opacity:1"
         transform="scale(1.3310547,1.3333333)"
         clip-path="url(#clipPath103)"
         id="path104" />
    </g>
    <g
       id="g110"
       clip-path="url(#clipPath111)"
       style="stroke-width:2;stroke-dasharray:none"
       transform="translate(8.947814,4.0375957)">
      <path
         d="M 169.501,325.547 325.545,169.5"
         style="fill:none;stroke:#000000;stroke-width:1.50128;stroke-linecap:square;stroke-linejoin:round;stroke-miterlimit:4;stroke-dasharray:none;stroke-opacity:1"
         transform="scale(1.3310547,1.3333333)"
         clip-path="url(#clipPath109)"
         id="path110" />
    </g>
    <g
       id="g113"
       clip-path="url(#clipPath114)"
       style="stroke-width:2;stroke-dasharray:none"
       transform="translate(8.947814,4.0375957)">
      <path
         d="M 130.489,208.512 169.501,13.453"
         style="fill:none;stroke:#000000;stroke-width:1.50128;stroke-linecap:square;stroke-linejoin:round;stroke-miterlimit:4;stroke-dasharray:none;stroke-opacity:1"
         transform="scale(1.3310547,1.3333333)"
         clip-path="url(#clipPath112)"
         id="path113" />
    </g>
    <g
       id="g116"
       clip-path="url(#clipPath117)"
       style="stroke-width:2;stroke-dasharray:none"
       transform="translate(8.947814,4.0375957)">
      <path
         d="M 130.489,208.512 325.545,169.5"
         style="fill:none;stroke:#000000;stroke-width:1.50128;stroke-linecap:square;stroke-linejoin:round;stroke-miterlimit:4;stroke-dasharray:none;stroke-opacity:1"
         transform="scale(1.3310547,1.3333333)"
         clip-path="url(#clipPath115)"
         id="path116" />
    </g>
    <g
       id="g122"
       clip-path="url(#clipPath123)"
       style="stroke-width:2;stroke-dasharray:none"
       transform="translate(8.947814,4.0375957)">
      <path
         d="M 169.501,13.453 325.545,169.5"
         style="fill:none;stroke:#000000;stroke-width:1.50128;stroke-linecap:square;stroke-linejoin:round;stroke-miterlimit:4;stroke-dasharray:none;stroke-opacity:1"
         transform="scale(1.3310547,1.3333333)"
         clip-path="url(#clipPath121)"
         id="path122" />
    </g>
    <path
       id="path127"
       d="m 26.853894,242.31305 c 3.256558,0 6.371226,-1.29307 8.67262,-3.59493 2.296202,-2.30187 3.58879,-5.4236 3.58879,-8.68054 0,-3.25693 -1.292588,-6.37866 -3.58879,-8.68053 -2.301394,-2.30187 -5.416062,-3.59493 -8.67262,-3.59493 -3.251367,0 -6.364305,1.29306 -8.667429,3.59493 -2.294472,2.30187 -3.588789,5.4236 -3.588789,8.68053 0,3.25694 1.294317,6.37867 3.588789,8.68054 2.303124,2.30186 5.416062,3.59493 8.667429,3.59493 z"
       style="fill:#ff0000;fill-opacity:1;fill-rule:nonzero;stroke:#000000;stroke-width:1.73492;stroke-linecap:butt;stroke-linejoin:round;stroke-miterlimit:4;stroke-dasharray:none;stroke-opacity:1" />
    <path
       id="path128"
       d="m 442.26542,242.31305 c 3.24964,0 6.37123,-1.29307 8.6657,-3.59493 2.30313,-2.30187 3.59571,-5.4236 3.59571,-8.68054 0,-3.25693 -1.29258,-6.37866 -3.59571,-8.68053 -2.29447,-2.30187 -5.41606,-3.59493 -8.6657,-3.59493 -3.25136,0 -6.36603,1.29306 -8.66743,3.59493 -2.29447,2.30187 -3.58879,5.4236 -3.58879,8.68053 0,3.25694 1.29432,6.37867 3.58879,8.68054 2.3014,2.30186 5.41607,3.59493 8.66743,3.59493 z"
       style="fill:#ff0000;fill-opacity:1;fill-rule:nonzero;stroke:#000000;stroke-width:1.73492;stroke-linecap:butt;stroke-linejoin:round;stroke-miterlimit:4;stroke-dasharray:none;stroke-opacity:1" />
    <path
       id="path129"
       d="m 234.56312,450.37651 c 3.24964,0 6.36431,-1.29306 8.6657,-3.59493 2.2962,-2.30187 3.58879,-5.4236 3.58879,-8.68053 0,-3.25694 -1.29259,-6.3856 -3.58879,-8.68747 -2.30139,-2.30187 -5.41606,-3.59493 -8.6657,-3.59493 -3.25136,0 -6.37122,1.29306 -8.66743,3.59493 -2.30139,2.30187 -3.58879,5.43053 -3.58879,8.68747 0,3.25693 1.2874,6.37866 3.58879,8.68053 2.29621,2.30187 5.41607,3.59493 8.66743,3.59493 z"
       style="fill:#00ff00;fill-opacity:1;fill-rule:nonzero;stroke:#000000;stroke-width:1.73492;stroke-linecap:butt;stroke-linejoin:round;stroke-miterlimit:4;stroke-dasharray:none;stroke-opacity:1" />
    <path
       id="path130"
       d="m 234.56312,34.256529 c 3.24964,0 6.36431,-1.293067 8.6657,-3.594934 2.2962,-2.301866 3.58879,-5.430533 3.58879,-8.687466 0,-3.256933 -1.29259,-6.378667 -3.58879,-8.680534 -2.30139,-2.301866 -5.41606,-3.5949328 -8.6657,-3.5949328 -3.25136,0 -6.37122,1.2930668 -8.66743,3.5949328 -2.30139,2.301867 -3.58879,5.423601 -3.58879,8.680534 0,3.256933 1.2874,6.3856 3.58879,8.687466 2.29621,2.301867 5.41607,3.594934 8.66743,3.594934 z"
       style="fill:#00ff00;fill-opacity:1;fill-rule:nonzero;stroke:#000000;stroke-width:1.73492;stroke-linecap:butt;stroke-linejoin:round;stroke-miterlimit:4;stroke-dasharray:none;stroke-opacity:1" />
    <path
       id="path131"
       d="m 182.63602,294.32905 c 3.24963,0 6.37122,-1.29307 8.66569,-3.59493 2.30313,-2.3036 3.58879,-5.4236 3.58879,-8.68054 0,-3.25693 -1.28566,-6.37866 -3.58879,-8.68053 -2.29447,-2.30187 -5.41606,-3.59493 -8.66569,-3.59493 -3.25137,0 -6.37123,1.29306 -8.66743,3.59493 -2.3014,2.30187 -3.58879,5.4236 -3.58879,8.68053 0,3.25694 1.28739,6.37694 3.58879,8.68054 2.2962,2.30186 5.41606,3.59493 8.66743,3.59493 z"
       style="fill:#0000ff;fill-opacity:1;fill-rule:nonzero;stroke:#000000;stroke-width:1.73492;stroke-linecap:butt;stroke-linejoin:round;stroke-miterlimit:4;stroke-dasharray:none;stroke-opacity:1" />
    <path
       id="path132"
       d="m 286.49103,190.29705 c 3.24963,0 6.3643,-1.29306 8.6657,-3.59493 2.2962,-2.30187 3.58879,-5.4236 3.58879,-8.68053 0,-3.25694 -1.29259,-6.37694 -3.58879,-8.68054 -2.3014,-2.30186 -5.41607,-3.59493 -8.6657,-3.59493 -3.25137,0 -6.37123,1.29307 -8.66743,3.59493 -2.3014,2.3036 -3.59571,5.4236 -3.59571,8.68054 0,3.25693 1.29431,6.37866 3.59571,8.68053 2.2962,2.30187 5.41606,3.59493 8.66743,3.59493 z"
       style="fill:#0000ff;fill-opacity:1;fill-rule:nonzero;stroke:#000000;stroke-width:1.73492;stroke-linecap:butt;stroke-linejoin:round;stroke-miterlimit:4;stroke-dasharray:none;stroke-opacity:1" />
    <path
       style="fill:none;fill-rule:evenodd;stroke:#000000;stroke-width:2;stroke-linecap:butt;stroke-linejoin:miter;stroke-dasharray:2, 2;stroke-dashoffset:0;stroke-opacity:1"
       d="M 38.877132,227.62929 274.4664,180.42981"
       id="path45" />
    <path
       style="fill:none;fill-rule:evenodd;stroke:#000000;stroke-width:2;stroke-linecap:butt;stroke-linejoin:miter;stroke-dasharray:2, 2;stroke-dashoffset:0;stroke-opacity:1"
       d="M 282.61179,166.37664 238.43844,33.626343"
       id="path46" />
    <path
       style="fill:none;fill-rule:evenodd;stroke:#000000;stroke-width:2;stroke-linecap:butt;stroke-linejoin:miter;stroke-dasharray:2, 2;stroke-dashoffset:0;stroke-opacity:1"
       d="m 298.1161,181.90469 132.52298,44.24995"
       id="path89" />
    <path
       style="fill:none;fill-rule:evenodd;stroke:#000000;stroke-width:2;stroke-linecap:butt;stroke-linejoin:miter;stroke-dasharray:2, 2;stroke-dashoffset:0;stroke-opacity:1"
       d="M 284.08359,190.05816 236.96617,426.057"
       id="path90" />
  </g>
</svg>
